<?xml version="1.0" encoding="utf-8"?>
<!-- Generator: Adobe Illustrator 17.0.0, SVG Export Plug-In . SVG Version: 6.00 Build 0)  -->
<!DOCTYPE svg PUBLIC "-//W3C//DTD SVG 1.1//EN" "http://www.w3.org/Graphics/SVG/1.1/DTD/svg11.dtd">
<svg version="1.1" id="Camada_1" xmlns="http://www.w3.org/2000/svg" xmlns:xlink="http://www.w3.org/1999/xlink" x="0px" y="0px"
	 width="24px" height="24px" viewBox="0 0 24 24" enable-background="new 0 0 24 24" xml:space="preserve">
<g>
	<g>
		<defs>
			<rect id="SVGID_1_" x="-4.911" width="24" height="24"/>
		</defs>
		<clipPath id="SVGID_2_">
			<use xlink:href="#SVGID_1_"  overflow="visible"/>
		</clipPath>
		<path clip-path="url(#SVGID_2_)" d="M9.141,12.112c0,0.315,0.255,0.57,0.57,0.57c0.262,0,0.481-0.178,0.547-0.419
			c-0.398-0.033-0.769-0.091-1.117-0.169C9.142,12.1,9.141,12.106,9.141,12.112z"/>
	</g>
	<g>
		<defs>
			<rect id="SVGID_3_" x="-4.911" width="24" height="24"/>
		</defs>
		<clipPath id="SVGID_4_">
			<use xlink:href="#SVGID_3_"  overflow="visible"/>
		</clipPath>
		<path clip-path="url(#SVGID_4_)" d="M13.018,23.525c0.315,0,0.57-0.255,0.57-0.57l0-10.842c-0.001-1.228-0.995-2.224-2.224-2.224
			c-0.536,0-1.027,0.19-1.411,0.505c0.342,0.052,0.726,0.081,1.157,0.081c0.175,0,0.357-0.005,0.548-0.015
			c0.503-0.026,0.933,0.36,0.959,0.863c0.012,0.226-0.06,0.436-0.187,0.602c0.011,0.061,0.017,0.123,0.017,0.187v10.842
			C12.448,23.269,12.703,23.525,13.018,23.525z"/>
	</g>
	<g>
		<defs>
			<rect id="SVGID_5_" x="-4.911" y="0" width="24" height="24"/>
		</defs>
		<clipPath id="SVGID_6_">
			<use xlink:href="#SVGID_5_"  overflow="visible"/>
		</clipPath>
		<circle clip-path="url(#SVGID_6_)" cx="9.578" cy="2.566" r="2.565"/>
	</g>
	<g>
		<defs>
			<rect id="SVGID_7_" x="-4.911" width="24" height="24"/>
		</defs>
		<clipPath id="SVGID_8_">
			<use xlink:href="#SVGID_7_"  overflow="visible"/>
		</clipPath>
		<path clip-path="url(#SVGID_8_)" d="M2.553,15.349c0.254,0.557,0.489,1.32,0.489,2.265c-0.004,1.106-0.309,2.485-1.417,4.176
			c-0.433,0.658-0.251,1.542,0.407,1.975C2.273,23.924,2.546,24,2.814,24c0.464,0,0.918-0.226,1.192-0.642
			c1.383-2.094,1.89-4.077,1.886-5.744c0-1.562-0.429-2.822-0.861-3.69C5,13.859,4.968,13.797,4.936,13.737
			c0.08-0.225,0.137-0.461,0.171-0.702c0.137-1.041,0.434-2.017,0.857-2.907c-0.008-0.011-0.017-0.021-0.024-0.032
			C5.067,8.869,4.965,7.56,4.961,6.891c0-0.273,0.02-0.447,0.023-0.477C5.045,5.914,5.5,5.557,6,5.618s0.857,0.515,0.796,1.016
			v0.002C6.795,6.643,6.794,6.659,6.792,6.681C6.789,6.726,6.786,6.798,6.786,6.891C6.784,7.216,6.832,7.794,7.057,8.358
			C7.115,8.284,7.174,8.21,7.234,8.137c0.748-0.915,0.88-2.219,0.195-3.248C6.758,3.872,5.08,3.767,3.89,5.078
			C2.265,6.89,1.119,9.15,0.652,11.674C0.319,13.391,1.354,15.081,2.553,15.349z"/>
	</g>
	<g>
		<defs>
			<rect id="SVGID_9_" x="-4.911" width="24" height="24"/>
		</defs>
		<clipPath id="SVGID_10_">
			<use xlink:href="#SVGID_9_"  overflow="visible"/>
		</clipPath>
		<path clip-path="url(#SVGID_10_)" d="M11.111,12.071c0.206,0,0.418-0.006,0.632-0.017c0.27-0.014,0.495-0.184,0.593-0.417
			c0.039-0.093,0.059-0.195,0.054-0.302c-0.019-0.364-0.319-0.648-0.683-0.648c-0.012,0-0.024,0-0.036,0.001
			c-0.189,0.01-0.378,0.015-0.56,0.015c-0.492,0-0.947-0.039-1.364-0.114c-0.447-0.08-0.851-0.202-1.206-0.367
			C7.765,9.857,7.243,9.33,6.899,8.568C6.895,8.558,6.89,8.55,6.886,8.541c-0.3-0.689-0.329-1.385-0.328-1.65
			c0-0.102,0.004-0.179,0.007-0.223C6.567,6.64,6.568,6.62,6.57,6.606c0.022-0.181-0.028-0.36-0.141-0.504
			C6.316,5.958,6.154,5.866,5.973,5.844C5.945,5.841,5.917,5.839,5.889,5.839c-0.345,0-0.636,0.259-0.678,0.601
			C5.206,6.483,5.19,6.643,5.19,6.889c0.007,1.145,0.307,2.156,0.89,3.006c0.016,0.023,0.03,0.046,0.046,0.068
			c0.454,0.635,1.091,1.154,1.841,1.501c0.363,0.169,0.761,0.3,1.189,0.399c0.356,0.082,0.732,0.141,1.13,0.174
			C10.552,12.059,10.826,12.071,11.111,12.071z"/>
	</g>
</g>
<text transform="matrix(1.134 0 0 1 13.5449 8.2959)" font-family="'Arial-BoldMT'" font-size="8.3969">60</text>
</svg>
