<?xml version="1.0" encoding="utf-8"?>
<!-- Generator: Adobe Illustrator 17.0.0, SVG Export Plug-In . SVG Version: 6.00 Build 0)  -->
<!DOCTYPE svg PUBLIC "-//W3C//DTD SVG 1.1//EN" "http://www.w3.org/Graphics/SVG/1.1/DTD/svg11.dtd">
<svg version="1.1" id="Layer_13" xmlns="http://www.w3.org/2000/svg" xmlns:xlink="http://www.w3.org/1999/xlink" x="0px" y="0px"
	 width="24px" height="24px" viewBox="0 0 24 24" enable-background="new 0 0 24 24" xml:space="preserve">
<title></title>
<circle cx="12" cy="3.156" r="2.469"/>
<path d="M19.718,11.078l-4.035-4.035c-0.608-0.612-1.436-0.954-2.298-0.952h-2.77c-0.862-0.002-1.69,0.341-2.298,0.952l-4.035,4.035
	l1.253,1.253l2.859-2.859c-1.251,2.625-1.643,5.576-1.122,8.437h9.455c0.521-2.86,0.129-5.812-1.122-8.437l2.859,2.859
	L19.718,11.078z M12,16.004c-1.54-0.946-2.865-2.079-2.865-3.635c-0.001-0.887,0.718-1.606,1.605-1.607
	c0.491,0,0.955,0.224,1.26,0.609c0.551-0.695,1.561-0.812,2.256-0.261c0.385,0.305,0.609,0.769,0.609,1.26
	C14.865,13.925,13.552,15.058,12,16.004z"/>
<polygon points="8.717,16.751 7.802,22.75 10.321,22.75 11.236,16.751 "/>
<polygon points="12.764,16.751 13.679,22.75 16.198,22.75 15.283,16.751 "/>
</svg>
